<svg width="333" height="106" viewBox="0 0 333 106" fill="none" xmlns="http://www.w3.org/2000/svg">
<mask id="path-1-inside-1_13_1130" fill="white">
<path fill-rule="evenodd" clip-rule="evenodd" d="M48.7332 90.8774L0 105.715L18.1939 73.9413V10C18.1939 4.47716 22.671 7.62939e-06 28.1939 7.62939e-06H323C328.523 7.62939e-06 333 4.47715 333 10V80.8774C333 86.4002 328.523 90.8774 323 90.8774H48.7332Z"/>
</mask>
<path fill-rule="evenodd" clip-rule="evenodd" d="M48.7332 90.8774L0 105.715L18.1939 73.9413V10C18.1939 4.47716 22.671 7.62939e-06 28.1939 7.62939e-06H323C328.523 7.62939e-06 333 4.47715 333 10V80.8774C333 86.4002 328.523 90.8774 323 90.8774H48.7332Z" fill="#D4443A"/>
<path d="M0 105.715L0.291262 106.671L-2.1206 107.406L-0.867801 105.218L0 105.715ZM48.7332 90.8774L48.442 89.9207L48.5844 89.8774H48.7332V90.8774ZM18.1939 73.9413H19.1939V74.2073L19.0617 74.4382L18.1939 73.9413ZM-0.291262 104.758L48.442 89.9207L49.0245 91.834L0.291262 106.671L-0.291262 104.758ZM19.0617 74.4382L0.867801 106.212L-0.867801 105.218L17.3261 73.4444L19.0617 74.4382ZM19.1939 10V73.9413H17.1939V10H19.1939ZM28.1939 1.00001C23.2233 1.00001 19.1939 5.02944 19.1939 10H17.1939C17.1939 3.92487 22.1188 -0.999992 28.1939 -0.999992V1.00001ZM323 1.00001H28.1939V-0.999992H323V1.00001ZM332 10C332 5.02943 327.971 1.00001 323 1.00001V-0.999992C329.075 -0.999992 334 3.92487 334 10H332ZM332 80.8774V10H334V80.8774H332ZM323 89.8774C327.971 89.8774 332 85.8479 332 80.8774H334C334 86.9525 329.075 91.8774 323 91.8774V89.8774ZM48.7332 89.8774H323V91.8774H48.7332V89.8774Z" fill="#D5443A" mask="url(#path-1-inside-1_13_1130)"/>
</svg>
